<svg xmlns="http://www.w3.org/2000/svg" viewBox="0 0 60.68 59.47"><defs><style>.cls-1{fill:#231f20;}</style></defs><title>Asset 8</title><g id="Layer_2" data-name="Layer 2"><g id="Layer_1-2" data-name="Layer 1"><path class="cls-1" d="M37.92,36.72h0A18.36,18.36,0,0,0,50.85,5.4,18.21,18.21,0,0,0,37.89,0h-.1L0,0V59.46H60.68Zm9.77-8.56A13.72,13.72,0,0,1,38,32.25H27.15L49.88,55H32.67L10.43,32.75,38.64,4.54a13.73,13.73,0,0,1,9,4A13.88,13.88,0,0,1,47.69,28.16ZM32.38,4.48,4.47,32.39V4.47ZM4.47,38.71l2.8-2.79L26.35,55H4.47Z"/></g></g></svg>