<svg xmlns="http://www.w3.org/2000/svg" viewBox="0 0 100.26 166.21"><defs><style>.cls-1{fill:#eeca8b;}.cls-2{fill:#231f20;}</style></defs><title>KR Logo Label</title><g id="Layer_2" data-name="Layer 2"><g id="Layer_1-2" data-name="Layer 1"><rect class="cls-1" width="100.26" height="166.21"/><path class="cls-2" d="M58.83,123h0a18.35,18.35,0,0,0-.07-36.69h-.1l-37.79,0v59.46H81.59Zm9.77-8.56a13.74,13.74,0,0,1-9.74,4.09H48.05l22.74,22.74H53.58L31.34,119,59.55,90.77a13.73,13.73,0,0,1,9,4A13.88,13.88,0,0,1,68.6,114.39ZM58.7,88.45h0v0Zm-5.41,2.26L25.38,118.62V90.7ZM25.38,124.94l2.79-2.79,19.08,19.08H25.38Z"/></g></g></svg>